<svg width="17" height="21" viewBox="0 0 17 21" fill="none" xmlns="http://www.w3.org/2000/svg">
<path d="M11.3334 5.41699C10.5504 5.41699 9.91678 6.05062 9.91678 6.83366V11.792L11.3334 10.3753H14.1668C14.9498 10.3753 15.5834 9.7417 15.5834 8.95866V6.83366C15.5834 6.05062 14.9498 5.41699 14.1668 5.41699H11.3334ZM6.6186 9.66699C4.67068 9.66699 1.41678 12.1462 1.41678 12.1462C1.41678 12.1462 4.67068 14.6253 6.6186 14.6253C8.05187 14.6253 9.20845 13.5158 9.20845 12.1462C9.20845 10.7765 8.05187 9.66699 6.6186 9.66699ZM6.72928 16.042C2.6785 16.042 1.41678 18.3883 1.41678 18.3883V19.5837H12.0418V18.3883C12.0418 18.3883 10.7801 16.042 6.72928 16.042Z" fill="#4A5670"/>
</svg>
