<svg width="17" height="21" viewBox="0 0 17 21" fill="none" xmlns="http://www.w3.org/2000/svg">
<path d="M8.32999 4.68018V6.14218H7.59899C7.16039 6.14218 6.86799 6.43458 6.86799 6.87318V10.5282C6.86799 10.9668 7.16039 11.2592 7.59899 11.2592H8.32999V12.7212H9.79199V11.2592H10.523C10.9616 11.2592 11.254 10.9668 11.254 10.5282V6.87318C11.254 6.43458 10.9616 6.14218 10.523 6.14218H9.79199V4.68018H8.32999ZM2.48199 9.79718V11.2592H1.75099C1.31239 11.2592 1.01999 11.5516 1.01999 11.9902V15.6452C1.01999 16.0838 1.31239 16.3762 1.75099 16.3762H2.48199V17.8382H3.94399V16.3762H4.67499C5.11359 16.3762 5.40599 16.0838 5.40599 15.6452V11.9902C5.40599 11.5516 5.11359 11.2592 4.67499 11.2592H3.94399V9.79718H2.48199ZM12.716 11.2592V12.7212H11.985C11.5464 12.7212 11.254 13.0136 11.254 13.4522V17.1072C11.254 17.5458 11.5464 17.8382 11.985 17.8382H12.716V19.3002H14.178V17.8382H14.909C15.3476 17.8382 15.64 17.5458 15.64 17.1072V13.4522C15.64 13.0136 15.3476 12.7212 14.909 12.7212H14.178V11.2592H12.716ZM2.48199 12.7212H3.94399V14.9142H2.48199V12.7212Z" fill="white"/>
</svg>
