<svg width="17" height="21" viewBox="0 0 17 21" fill="none" xmlns="http://www.w3.org/2000/svg">
<path d="M12.0418 5.41699C11.6661 5.41699 11.3057 5.56625 11.04 5.83192C10.7744 6.0976 10.6251 6.45794 10.6251 6.83366C10.6255 7.08191 10.6912 7.32569 10.8155 7.54057C10.9398 7.75546 11.1184 7.9339 11.3334 8.05802V8.95866H9.20844V7.54199L9.20982 6.51823C9.20986 6.39412 9.17729 6.27218 9.11538 6.16462C9.05346 6.05706 8.96438 5.96766 8.85704 5.90535C8.34936 5.61056 7.78365 5.45214 7.21349 5.42944C7.02343 5.42188 6.8324 5.42882 6.6435 5.45158C5.88788 5.5426 5.15779 5.87617 4.57937 6.45459C4.35219 6.68178 4.17602 6.93329 4.03705 7.19889L4.0163 7.18783C3.5864 7.93208 3.47601 8.76926 3.61371 9.55908C2.32025 10.2852 1.41677 11.6239 1.41677 13.2087C1.41677 14.4977 2.0447 15.6085 2.95104 16.3851C3.2874 18.1898 4.82916 19.5837 6.72927 19.5837C7.52794 19.5837 8.27616 19.3393 8.89439 18.9251C8.99097 18.8604 9.07013 18.7729 9.1249 18.6704C9.17966 18.5678 9.20836 18.4534 9.20844 18.3372V17.4587V16.042H11.3334V16.9412C11.1182 17.0655 10.9395 17.2441 10.8152 17.4593C10.6909 17.6744 10.6253 17.9185 10.6251 18.167C10.6251 18.5427 10.7744 18.903 11.04 19.1687C11.3057 19.4344 11.6661 19.5837 12.0418 19.5837C12.4175 19.5837 12.7778 19.4344 13.0435 19.1687C13.3092 18.903 13.4584 18.5427 13.4584 18.167C13.458 17.9187 13.3923 17.675 13.268 17.4601C13.1437 17.2452 12.9651 17.0668 12.7501 16.9426V15.3337C12.7501 15.1458 12.6755 14.9656 12.5426 14.8328C12.4098 14.7 12.2296 14.6253 12.0418 14.6253H9.20844V13.2087H13.6507C13.7749 13.4237 13.9533 13.6023 14.1682 13.7266C14.3831 13.8509 14.6269 13.9166 14.8751 13.917C15.2508 13.917 15.6112 13.7677 15.8768 13.5021C16.1425 13.2364 16.2918 12.876 16.2918 12.5003C16.2918 12.1246 16.1425 11.7643 15.8768 11.4986C15.6112 11.2329 15.2508 11.0837 14.8751 11.0837C14.6266 11.0839 14.3826 11.1494 14.1674 11.2737C13.9523 11.3981 13.7736 11.5768 13.6494 11.792H9.20844V10.3753H12.0418C12.2296 10.3753 12.4098 10.3007 12.5426 10.1678C12.6755 10.035 12.7501 9.85485 12.7501 9.66699V8.05941C12.9653 7.93516 13.144 7.7565 13.2684 7.54136C13.3927 7.32621 13.4582 7.08215 13.4584 6.83366C13.4584 6.45794 13.3092 6.0976 13.0435 5.83192C12.7778 5.56625 12.4175 5.41699 12.0418 5.41699ZM7.06684 6.85164C7.31243 6.8758 7.55315 6.9682 7.79177 7.0564V7.54199V9.54801C7.77913 9.62451 7.77913 9.70256 7.79177 9.77905V11.085H7.78762C7.78858 11.8739 7.16482 12.4994 6.37649 12.5003L6.37787 13.917C6.89432 13.9164 7.37384 13.7642 7.79177 13.5186V15.2147C7.77913 15.2912 7.77913 15.3692 7.79177 15.4457V17.4587V17.8446C7.46193 18.0081 7.12426 18.167 6.72927 18.167C5.45172 18.167 4.42694 17.2123 4.28193 15.9742C4.27067 15.8777 4.23968 15.7846 4.19089 15.7005C4.1421 15.6165 4.07655 15.5434 3.99832 15.4858C3.29253 14.967 2.83344 14.1487 2.83344 13.2087C2.83344 12.2162 3.34672 11.362 4.11591 10.8582C4.41134 11.323 4.80501 11.7329 5.31261 12.0258L6.02094 10.7987C5.58156 10.5451 5.2754 10.1598 5.10647 9.7251C5.10177 9.7055 5.09623 9.68612 5.08987 9.66699C4.99027 9.3854 4.94933 9.08809 4.96951 8.79541C4.9748 8.71873 4.98909 8.64291 5.00271 8.56714C5.01274 8.51491 5.02321 8.46264 5.0373 8.41081C5.05129 8.35699 5.06461 8.30311 5.08295 8.25033C5.12354 8.13716 5.17258 8.02543 5.23375 7.91691C5.32591 7.75278 5.44044 7.59677 5.581 7.45622C5.93121 7.10601 6.36746 6.90615 6.8192 6.85303C6.90208 6.84328 6.98498 6.84359 7.06684 6.85164Z" fill="#4A5670"/>
</svg>
