<svg width="17" height="21" viewBox="0 0 17 21" fill="none" xmlns="http://www.w3.org/2000/svg">
<path d="M4.42 5.35986C4.05931 5.35986 3.71339 5.50673 3.45834 5.76816C3.20329 6.02958 3.06 6.38415 3.06 6.75386C3.06 7.12357 3.20329 7.47814 3.45834 7.73957C3.71339 8.001 4.05931 8.14786 4.42 8.14786C4.7807 8.14786 5.12662 8.001 5.38167 7.73957C5.63672 7.47814 5.78 7.12357 5.78 6.75386C5.78 6.38415 5.63672 6.02958 5.38167 5.76816C5.12662 5.50673 4.7807 5.35986 4.42 5.35986ZM12.58 5.35986C12.2193 5.35986 11.8734 5.50673 11.6183 5.76816C11.3633 6.02958 11.22 6.38415 11.22 6.75386C11.22 7.12357 11.3633 7.47814 11.6183 7.73957C11.8734 8.001 12.2193 8.14786 12.58 8.14786C12.9407 8.14786 13.2866 8.001 13.5417 7.73957C13.7967 7.47814 13.94 7.12357 13.94 6.75386C13.94 6.38415 13.7967 6.02958 13.5417 5.76816C13.2866 5.50673 12.9407 5.35986 12.58 5.35986ZM3.74 9.54186C2.9886 9.54186 2.38 10.1657 2.38 10.9359V15.1179V19.2999H3.74V15.1179H5.1V19.2999H6.46V14.4209V12.4483L8.5 14.5407L10.54 12.4483V15.1179V19.2999H11.9V15.1179H13.26V19.2999H14.62V14.4209V10.9359C14.62 10.1657 14.0114 9.54186 13.26 9.54186H11.9C11.5219 9.54186 11.1809 9.70064 10.9345 9.95571L10.9331 9.95435L8.5 12.4497L6.06157 9.95026L6.0443 9.9312L6.04165 9.93393C5.79714 9.69251 5.4665 9.54186 5.1 9.54186H3.74Z" fill="white"/>
</svg>
