<svg width="17" height="21" viewBox="0 0 17 21" fill="none" xmlns="http://www.w3.org/2000/svg">
<path d="M4.24989 5.41699C3.47564 5.41699 2.83323 6.05941 2.83323 6.83366V18.167C2.83323 18.9412 3.47564 19.5837 4.24989 19.5837H12.7499C13.5241 19.5837 14.1666 18.9412 14.1666 18.167V6.83366C14.1666 6.05941 13.5241 5.41699 12.7499 5.41699H4.24989ZM5.66656 8.25033C5.66656 8.25033 7.78885 8.7642 8.19968 9.47607C8.61051 10.1879 8.33015 11.1191 7.57436 11.5554C6.81786 11.9918 6.07739 11.7955 5.66656 11.0837C5.25573 10.3718 5.66656 8.25033 5.66656 8.25033ZM9.26495 11.8625C10.6037 13.8175 12.0054 16.3664 11.3332 16.7503C10.3841 17.2929 9.11609 14.9512 7.73484 13.0316C7.919 12.9678 8.10284 12.8831 8.27992 12.7839C8.69076 12.5431 9.02412 12.2309 9.26495 11.8625Z" fill="#4A5670"/>
</svg>
