<svg width="17" height="21" viewBox="0 0 17 21" fill="none" xmlns="http://www.w3.org/2000/svg">
<path d="M6.72928 5.41699C5.75255 5.41699 4.95845 6.2111 4.95845 7.18783C4.95845 8.16455 5.75255 8.95866 6.72928 8.95866C7.706 8.95866 8.50011 8.16455 8.50011 7.18783C8.50011 6.2111 7.706 5.41699 6.72928 5.41699ZM6.72928 9.66699C4.30822 9.66699 3.54178 11.0837 3.54178 11.0837V11.792H9.91678V11.0837C9.91678 11.0837 9.15034 9.66699 6.72928 9.66699ZM12.3959 9.66699C12.1995 9.66699 12.0418 9.82471 12.0418 10.0212C12.0418 10.2176 12.1995 10.3753 12.3959 10.3753C12.5924 10.3753 12.7501 10.2176 12.7501 10.0212C12.7501 9.82471 12.5924 9.66699 12.3959 9.66699ZM12.3959 10.7295C11.8094 10.7295 11.3334 11.2054 11.3334 11.792H13.4584C13.4584 11.2054 12.9825 10.7295 12.3959 10.7295ZM1.41678 12.5003V13.917H15.5834V12.5003H1.41678ZM2.12511 14.6253V19.5837H14.8751V14.6253H2.12511Z" fill="#4A5670"/>
</svg>
