<svg width="146" height="27" viewBox="0 0 146 27" fill="none" xmlns="http://www.w3.org/2000/svg">
<path d="M88.1452 11.3503C86.4782 9.01407 86.8757 5.44557 89.0173 3.53298C91.159 1.62039 94.7496 1.62865 96.883 3.54814C99.0163 5.46763 99.4013 9.03892 97.7233 11.3696C100.483 10.808 103.509 12.5384 104.427 15.1934C105.345 17.8484 104.028 21.0816 101.518 22.3401C99.0081 23.5986 95.6272 22.7182 94.0499 20.3916C94.2017 22.5485 95.6728 24.3824 97.2735 25.8368C97.296 25.8652 97.3123 25.8981 97.3213 25.9333C97.3302 25.9684 97.3316 26.005 97.3253 26.0408C97.3191 26.0765 97.3053 26.1105 97.2849 26.1405C97.2646 26.1705 97.2381 26.1959 97.2072 26.2149C97.0774 26.2858 96.9294 26.3161 96.7822 26.3019L89.532 26.324C89.1774 26.324 88.7841 26.3129 88.5261 26.07C90.1585 24.4403 91.9 22.5692 91.9469 20.2633C90.4207 22.6409 87.0371 23.6055 84.4953 22.3884C81.9534 21.1713 80.5666 17.9367 81.4594 15.2541C82.3522 12.5715 85.3743 10.8038 88.1452 11.3503Z" fill="white" stroke="white" stroke-width="0.75225" stroke-miterlimit="10"/>
<path d="M51.844 1.35883C52.0138 1.10907 52.396 0.851005 52.5561 1.10353C55.4129 5.51505 58.6799 9.647 62.3136 13.4443C62.4778 13.6168 62.3136 13.8928 62.1397 14.0639C58.7025 17.5971 55.6099 21.4498 52.9038 25.5698C52.8048 25.7514 52.6626 25.9059 52.4898 26.0196C52.3091 26.1176 52.0469 26.1011 51.9379 25.9272C49.2415 21.7356 46.1296 17.8263 42.6495 14.2585C42.3928 13.9963 42.1265 13.5754 42.3735 13.3063C45.8257 9.56714 48.9915 5.57335 51.844 1.35883Z" fill="white" stroke="white" stroke-width="0.75225" stroke-miterlimit="10"/>
<path d="M12.824 2.47005C15.1662 5.01833 17.6276 7.45114 20.208 9.76851C21.1119 10.5799 22.0461 11.3927 22.6754 12.4332C24.1477 14.8632 23.5033 18.3379 21.2954 20.1194C19.0875 21.9009 15.588 21.8029 13.4491 19.9304C13.9411 21.7658 15.0349 23.383 16.5553 24.5228C16.6933 24.6222 16.6395 24.8498 16.5043 24.9478C16.3584 25.03 16.1907 25.0652 16.0241 25.0485L8.49239 25.0417C8.32275 25.0589 8.15196 25.0227 8.00389 24.9382C7.86589 24.8402 7.81622 24.607 7.95145 24.5062C9.47073 23.3601 10.5705 21.7458 11.0811 19.9124C10.3624 20.5343 9.51139 20.9842 8.59271 21.2279C7.67403 21.4716 6.7119 21.5026 5.77943 21.3186C4.84889 21.1199 3.97759 20.7066 3.23492 20.1118C2.49225 19.5169 1.89874 18.7569 1.50164 17.8922C1.12034 17.0214 0.952347 16.0723 1.01163 15.1235C1.07091 14.1748 1.35575 13.2538 1.84248 12.4373C2.46207 11.4244 3.37283 10.6282 4.25737 9.83475C6.94272 7.42078 9.50434 4.87848 11.9422 2.20784C12.1782 1.95256 12.5894 2.21476 12.824 2.47005Z" fill="white" stroke="white" stroke-width="0.75225" stroke-miterlimit="10"/>
<path d="M125.114 4.4653C125.649 3.88872 126.307 3.4402 127.039 3.15302C128.417 2.60672 129.956 2.62673 131.319 3.20871C132.682 3.79068 133.761 4.88751 134.32 6.2606C134.69 5.47171 135.218 4.76775 135.873 4.19285C136.528 3.61796 137.294 3.18454 138.124 2.91978C139.061 2.61721 140.063 2.57431 141.022 2.7956C143.071 3.29928 144.61 5.18012 145.069 7.23899C145.529 9.29785 145.052 11.4809 144.127 13.3769C143.202 15.273 141.865 16.9317 140.51 18.5572C138.525 20.9491 136.498 23.301 134.429 25.6128C134.398 25.6566 134.353 25.6876 134.3 25.6998C134.229 25.7094 134.169 25.6487 134.122 25.5921L131.168 22.0899C129.926 20.6202 128.684 19.1506 127.459 17.6616C126.545 16.5494 125.64 15.4192 124.938 14.1635C123.687 11.9335 123.117 9.22746 123.85 6.77946C124.092 5.92282 124.524 5.13179 125.114 4.4653Z" fill="white" stroke="white" stroke-width="0.75225" stroke-miterlimit="10"/>
</svg>
