<svg width="17" height="21" viewBox="0 0 17 21" fill="none" xmlns="http://www.w3.org/2000/svg">
<path d="M4.25011 6.125C3.87438 6.125 3.51405 6.27426 3.24837 6.53993C2.9827 6.80561 2.83344 7.16594 2.83344 7.54167C2.83344 7.91739 2.9827 8.27772 3.24837 8.5434C3.51405 8.80908 3.87438 8.95833 4.25011 8.95833C4.62583 8.95833 4.98617 8.80908 5.25184 8.5434C5.51752 8.27772 5.66677 7.91739 5.66677 7.54167C5.66677 7.16594 5.51752 6.80561 5.25184 6.53993C4.98617 6.27426 4.62583 6.125 4.25011 6.125ZM12.7501 6.125C12.3744 6.125 12.014 6.27426 11.7484 6.53993C11.4827 6.80561 11.3334 7.16594 11.3334 7.54167C11.3334 7.91739 11.4827 8.27772 11.7484 8.5434C12.014 8.80908 12.3744 8.95833 12.7501 8.95833C13.1258 8.95833 13.4862 8.80908 13.7518 8.5434C14.0175 8.27772 14.1668 7.91739 14.1668 7.54167C14.1668 7.16594 14.0175 6.80561 13.7518 6.53993C13.4862 6.27426 13.1258 6.125 12.7501 6.125ZM8.50011 8.95833C8.12438 8.95833 7.76405 9.10759 7.49837 9.37327C7.2327 9.63894 7.08344 9.99928 7.08344 10.375C7.08344 10.7507 7.2327 11.1111 7.49837 11.3767C7.76405 11.6424 8.12438 11.7917 8.50011 11.7917C8.87583 11.7917 9.23617 11.6424 9.50184 11.3767C9.76752 11.1111 9.91677 10.7507 9.91677 10.375C9.91677 9.99928 9.76752 9.63894 9.50184 9.37327C9.23617 9.10759 8.87583 8.95833 8.50011 8.95833V8.95833ZM4.25011 11.7917C3.87438 11.7917 3.51405 11.9409 3.24837 12.2066C2.9827 12.4723 2.83344 12.8326 2.83344 13.2083C2.83344 13.5841 2.9827 13.9444 3.24837 14.2101C3.51405 14.4757 3.87438 14.625 4.25011 14.625C4.62583 14.625 4.98617 14.4757 5.25184 14.2101C5.51752 13.9444 5.66677 13.5841 5.66677 13.2083C5.66677 12.8326 5.51752 12.4723 5.25184 12.2066C4.98617 11.9409 4.62583 11.7917 4.25011 11.7917ZM12.7501 11.7917C12.3744 11.7917 12.014 11.9409 11.7484 12.2066C11.4827 12.4723 11.3334 12.8326 11.3334 13.2083C11.3334 13.5841 11.4827 13.9444 11.7484 14.2101C12.014 14.4757 12.3744 14.625 12.7501 14.625C13.1258 14.625 13.4862 14.4757 13.7518 14.2101C14.0175 13.9444 14.1668 13.5841 14.1668 13.2083C14.1668 12.8326 14.0175 12.4723 13.7518 12.2066C13.4862 11.9409 13.1258 11.7917 12.7501 11.7917ZM4.25011 16.0417C3.30448 16.0417 1.41677 16.5522 1.41677 17.4943V18.875H7.08344V17.4943C7.08344 16.5522 5.19573 16.0417 4.25011 16.0417ZM12.7501 16.0417C11.8045 16.0417 9.91677 16.5522 9.91677 17.4943V18.875H15.5834V17.4943C15.5834 16.5522 13.6957 16.0417 12.7501 16.0417Z" fill="#4A5670"/>
</svg>
