<svg width="218" height="18" viewBox="0 0 218 18" fill="none" xmlns="http://www.w3.org/2000/svg">
<path d="M5.54841 17.0815C4.8649 17.6696 3.9936 17.9784 3.10159 17.9487C1.07981 17.9487 0 16.6969 0 14.7466V2.625H0.765826V5.37189H4.78641V6.07039H0.765826V14.625C0.765826 16.3124 1.60058 17.2659 3.17435 17.2659C3.90112 17.2815 4.60683 17.0152 5.15018 16.5204L5.54841 17.0815Z" fill="white"/>
<path d="M23.2276 10.5285V17.8784H22.4618V10.5952C22.4618 7.60497 20.911 6.03924 18.2498 6.03924C15.1865 6.03924 13.337 8.06409 13.337 11.1406V17.8784H12.5712V0H13.337V8.36233C14.1373 6.48267 15.8757 5.27796 18.3149 5.27796C21.3016 5.27796 23.2276 7.08306 23.2276 10.5285Z" fill="white"/>
<path d="M40.7419 15.3702L41.2129 15.9039C40.6498 16.5719 39.948 17.1022 39.1588 17.456C38.3697 17.8098 37.5133 17.978 36.6524 17.9484C33.076 17.9484 30.4684 15.3231 30.4684 11.6148C30.4684 7.90651 32.9305 5.27734 36.3231 5.27734C39.5204 5.27734 41.7528 7.83195 41.9404 10.9634L31.3989 13.106C31.9885 15.59 33.9873 17.2263 36.6677 17.2263C37.4404 17.2592 38.2101 17.1088 38.9168 16.7868C39.6234 16.4649 40.248 15.9801 40.7419 15.3702V15.3702ZM31.2189 11.5403C31.2189 11.8542 31.2419 12.1681 31.2648 12.4546L41.1401 10.4925C40.8376 8.10664 39.0265 6.01116 36.3231 6.01116C33.3364 5.99938 31.2189 8.33816 31.2189 11.5403Z" fill="white"/>
<path d="M64.2757 5.27734V6.06217H64.0613C61.2162 6.06217 59.5467 8.02424 59.5467 11.2185V17.8895H58.7809V5.37152H59.5467V8.38526C60.2283 6.4075 61.8748 5.27734 64.2757 5.27734Z" fill="white"/>
<path d="M81.6944 5.37209V17.8783H80.9286V14.4564C80.4947 15.5139 79.7599 16.4128 78.82 17.0358C77.88 17.6589 76.7787 17.9771 75.6597 17.9489C72.2747 17.9489 69.6901 15.3472 69.6901 11.6154C69.6901 7.88353 72.2747 5.27791 75.6597 5.27791C76.769 5.25148 77.8607 5.56536 78.7947 6.17925C79.7288 6.79314 80.4625 7.67905 80.9017 8.72329V5.37209H81.6944ZM80.9286 11.6154C80.9286 8.28772 78.6962 6.02349 75.7095 6.02349C72.7227 6.02349 70.4903 8.28772 70.4903 11.6154C70.4903 14.943 72.7266 17.2269 75.7095 17.2269C78.6923 17.2269 80.9171 14.9391 80.9171 11.6154H80.9286Z" fill="white"/>
<path d="M102.429 11.6154C102.429 15.3473 99.8448 17.949 96.4598 17.949C95.3407 17.9777 94.2391 17.6597 93.2991 17.0366C92.3591 16.4135 91.6244 15.5143 91.1909 14.4565V17.8784H90.4251V0H91.1909V8.72335C91.6317 7.67943 92.3663 6.79398 93.3008 6.18023C94.2353 5.56648 95.3272 5.25233 96.4369 5.27796C99.8448 5.27796 102.429 7.87966 102.429 11.6154ZM101.664 11.6154C101.664 8.28777 99.4274 6.02355 96.4407 6.02355C93.454 6.02355 91.2216 8.28777 91.2216 11.6154C91.2216 14.9431 93.4578 17.2269 96.4407 17.2269C99.4236 17.2269 101.656 14.9392 101.656 11.6154H101.664Z" fill="white"/>
<path d="M121.767 11.6154C121.767 15.3473 119.178 17.949 115.793 17.949C114.674 17.9774 113.573 17.6593 112.634 17.0362C111.695 16.4131 110.961 15.514 110.528 14.4565V17.8784H109.762V0H110.528V8.72335C110.968 7.67942 111.701 6.79381 112.635 6.17998C113.569 5.56615 114.661 5.25206 115.77 5.27796C119.19 5.27796 121.767 7.87966 121.767 11.6154ZM121.001 11.6154C121.001 8.28777 118.768 6.02355 115.782 6.02355C112.795 6.02355 110.562 8.28777 110.562 11.6154C110.562 14.9431 112.795 17.2269 115.782 17.2269C118.768 17.2269 121.001 14.9392 121.001 11.6154Z" fill="white"/>
<path d="M128.735 1.32603C128.732 1.11528 128.811 0.911918 128.954 0.760687C129.097 0.609456 129.293 0.522741 129.499 0.519619C129.705 0.516496 129.903 0.597222 130.051 0.744038C130.198 0.890854 130.283 1.09173 130.286 1.30248C130.289 1.51323 130.21 1.71659 130.067 1.86782C129.924 2.01906 129.728 2.10577 129.522 2.10889C129.316 2.11201 129.118 2.03129 128.97 1.88447C128.823 1.73766 128.738 1.53678 128.735 1.32603V1.32603ZM129.118 5.37181H129.884V17.878H129.118V5.37181Z" fill="white"/>
<path d="M144.063 17.0815C143.379 17.669 142.508 17.9777 141.616 17.9487C139.595 17.9487 138.515 16.6969 138.515 14.7466V2.625H139.281V5.37189H143.297V6.07039H139.292V14.625C139.292 16.3124 140.112 17.2502 141.689 17.2502C142.416 17.2659 143.122 16.9996 143.665 16.5047L144.063 17.0815Z" fill="white"/>
<path d="M171.215 10.5285V17.8784H170.449V10.5952C170.449 7.60497 168.895 6.03924 166.237 6.03924C163.174 6.03924 161.325 8.06409 161.325 11.1406V17.8784H160.559V0H161.325V8.36233C162.125 6.48267 163.863 5.27796 166.303 5.27796C169.289 5.27796 171.215 7.08306 171.215 10.5285Z" fill="white"/>
<path d="M190.446 11.6152C190.446 15.3235 187.907 17.9488 184.453 17.9488L190.446 11.6152ZM184.453 17.2268C187.436 17.2268 189.672 14.939 189.672 11.6152Z" fill="white"/>
<path d="M197.805 14.7704V0H198.571V14.6252C198.571 16.3126 199.302 17.2505 200.868 17.2505C201.27 17.2556 201.669 17.1824 202.044 17.0347L202.113 17.7096C201.699 17.8653 201.263 17.9463 200.822 17.949C198.839 17.949 197.805 16.6972 197.805 14.7704Z" fill="white"/>
<path d="M216.801 15.3702L217.272 15.9039C216.709 16.572 216.006 17.1023 215.216 17.4561C214.426 17.8098 213.569 17.978 212.708 17.9484C209.135 17.9484 206.524 15.3231 206.524 11.6148C206.524 7.90651 208.971 5.27734 212.379 5.27734C215.576 5.27734 217.812 7.83195 218 10.9634L207.466 13.106C208.056 15.59 210.051 17.2263 212.731 17.2263C213.503 17.2583 214.272 17.1074 214.978 16.7855C215.684 16.4636 216.308 15.9793 216.801 15.3702ZM207.278 11.5403C207.278 11.8542 207.301 12.1681 207.324 12.4546L217.2 10.4925C216.893 8.10664 215.082 6.01116 212.379 6.01116C209.396 5.99938 207.278 8.33816 207.278 11.5403V11.5403Z" fill="white"/>
<path d="M190.568 11.576C190.546 13.2249 189.906 14.8022 188.781 15.981C187.656 17.1598 186.131 17.8499 184.523 17.9084C182.915 17.9669 181.346 17.3893 180.142 16.2952C178.938 15.2012 178.19 13.6744 178.055 12.0312C178.938 12.7509 180.063 13.0844 181.185 12.9592C182.307 12.8341 183.335 12.2603 184.047 11.3626C184.758 10.4648 185.096 9.31564 184.985 8.16459C184.875 7.01354 184.326 5.95358 183.457 5.21494C184.343 5.09248 185.244 5.16542 186.1 5.42889C186.956 5.69236 187.747 6.14026 188.421 6.74259C189.094 7.34492 189.634 8.08777 190.004 8.92136C190.375 9.75495 190.567 10.66 190.568 11.576V11.576Z" fill="white"/>
</svg>
