<svg width="67" height="67" viewBox="0 0 67 67" fill="none" xmlns="http://www.w3.org/2000/svg">
<path d="M66.4974 33.3277C66.5173 41.9693 63.1856 50.28 57.2066 56.5027C51.2276 62.7255 43.0699 66.3725 34.4583 66.6728C25.8467 66.973 17.4562 63.903 11.0607 58.1116C4.66521 52.3203 0.76605 44.2618 0.187584 35.6396C0.162853 35.3501 0.22451 35.0597 0.364665 34.8054C0.50482 34.551 0.717177 34.3442 0.97478 34.2111C1.22817 34.0622 1.52169 33.9966 1.81414 34.0236C2.10659 34.0506 2.38328 34.1687 2.60534 34.3615C6.1009 37.0775 10.4034 38.5401 14.8252 38.5154C20.1625 38.5155 25.2826 36.3956 29.0654 32.6195C32.8482 28.8434 34.9858 23.7186 35.0105 18.366C35.0181 15.4576 34.3911 12.5827 33.1738 9.94295C31.9565 7.30319 30.1781 4.96244 27.9635 3.08473C27.7469 2.89879 27.5869 2.65545 27.5018 2.38257C27.4168 2.10969 27.41 1.81829 27.4823 1.54174C27.5547 1.26519 27.7032 1.01467 27.911 0.818846C28.1187 0.623023 28.3772 0.489805 28.6569 0.434469C30.1737 0.176911 31.7106 0.057378 33.2488 0.0773379C42.0506 0.0773028 50.4934 3.57749 56.726 9.81045C62.9586 16.0434 66.4725 24.5005 66.4974 33.3277Z" fill="#ED347C"/>
</svg>
