<svg width="38" height="60" viewBox="0 0 38 60" fill="none" xmlns="http://www.w3.org/2000/svg">
<g clip-path="url(#clip0)">
<path d="M37.003 0.217979C36.5528 -0.0978103 35.9751 -0.0708019 35.3008 0.301082L35.2351 0.334323C33.1485 1.3731 30.6508 4.52477 28.0133 9.45274C24.9112 15.2554 24.7242 23.9583 24.7242 25.9153C22.2902 25.1383 20.2139 25.4458 17.9978 25.9486C18.3905 15.5379 15.3028 11.6861 15.1692 11.5241L15.0972 11.4389L14.9842 11.4264C10.256 10.853 6.13016 12.5649 2.71355 16.5248C0.0555067 19.9694 -0.530374 24.058 0.437871 26.0213C0.770898 26.6965 1.291 27.0601 1.87688 27.0601C3.1247 27.0372 4.54931 25.3835 5.89992 22.4001C6.74893 20.5178 9.06162 18.004 10.5253 16.6619C7.85286 20.0816 7.89191 22.3212 7.89603 22.425V22.5102L7.94536 22.5788C8.39145 23.2021 8.81082 23.7401 9.21785 24.2554C9.96663 25.1602 10.6411 26.1254 11.2345 27.1411C11.8019 28.2007 12.7496 30.218 12.7002 31.8509C12.7002 32.2665 12.542 32.8897 12.2151 33.7208L12.0979 34.0178L12.4022 34.0989C12.791 34.1965 13.1713 34.3264 13.539 34.4874C14.8361 35.0421 15.0972 35.3309 15.8003 36.2471C16.3224 36.9223 16.2299 37.6889 15.8373 38.0379C15.4446 38.387 14.7477 38.3973 13.8391 37.4791C13.1484 36.781 13.1381 36.1619 13.1381 36.139V35.7464L12.7681 35.8669C12.6859 35.8939 10.7576 36.5462 9.83663 39.0933L9.79551 39.1245V39.2346C8.42435 44.9562 13.4609 48.3406 15.3583 49.6224C15.6255 49.8032 15.8373 49.9465 15.9462 50.0379C17.3852 51.2554 18.9003 51.7228 19.9754 51.2845C20.2229 51.1959 20.441 51.0393 20.6051 50.8323C20.7693 50.6253 20.873 50.3761 20.9046 50.1127C20.9869 49.3523 20.4709 48.5255 19.4903 47.8482C19.4573 47.8262 19.4269 47.8004 19.3998 47.7713C19.3606 47.7228 19.3361 47.6638 19.3292 47.6016C19.3223 47.5393 19.3332 47.4763 19.3608 47.4202C19.3945 47.3546 19.4461 47.3002 19.5095 47.2634C19.5729 47.2266 19.6454 47.2089 19.7185 47.2124H22.2511H23.2296C23.3818 47.2249 23.573 47.2748 23.6182 47.4431C23.6326 47.5569 23.6136 47.6726 23.5635 47.7756C23.5134 47.8787 23.4345 47.9646 23.3365 48.0227C23.2728 48.0684 23.2132 48.1203 23.1536 48.1702L23.133 48.1889C23.0344 48.2741 22.9275 48.3572 22.8164 48.4424C22.393 48.7727 21.914 49.1446 21.8133 49.6889L21.7906 49.8613C21.7505 50.1289 21.7897 50.4024 21.9031 50.6475C22.0165 50.8926 22.1991 51.0983 22.4279 51.2388C22.7839 51.4406 23.1876 51.5405 23.5956 51.5275C24.2405 51.5255 24.874 51.356 25.4354 51.0352C26.2927 50.5012 29.773 48.191 31.1483 46.6307C32.9039 44.6446 33.5638 42.3468 33.1094 39.7748C32.32 36.6584 30.0588 35.8897 29.9642 35.8586L29.6024 35.7547V36.1494C29.6024 36.1744 29.5921 36.7935 28.9014 37.4915C27.9928 38.4098 27.2733 38.3828 26.9012 38.0504C26.5291 37.718 26.4181 36.9347 26.9402 36.2595C27.6494 35.3433 27.9105 35.0545 29.2015 34.4998C29.5757 34.3286 29.9636 34.1896 30.3609 34.0843L30.6981 33.995L30.5912 33.7041C29.9457 31.9195 30.143 30.5587 30.8584 28.0075C31.064 27.3842 32.1453 25.2069 33.5083 22.4521C33.9091 21.6418 34.3305 20.7775 34.7766 19.8821C36.0185 17.3656 36.8515 14.6634 37.2435 11.8793C38.0062 6.36133 38.5694 1.31701 37.003 0.217979Z" fill="white"/>
<path d="M29.0432 59.9566C28.155 60.0592 27.2553 59.9744 26.4011 59.7077C25.547 59.4409 24.7568 58.9979 24.0807 58.4068C24.0517 58.3807 24.0285 58.3486 24.0127 58.3128C23.9968 58.277 23.9886 58.2382 23.9886 58.199C23.9886 58.1598 23.9968 58.121 24.0127 58.0852C24.0285 58.0494 24.0517 58.0174 24.0807 57.9913C25.3943 56.6803 24.5391 55.4732 24.1198 55.0224C24.0936 54.9963 24.0729 54.9653 24.0588 54.931C24.0446 54.8968 24.0373 54.8601 24.0373 54.823C24.0373 54.7859 24.0446 54.7491 24.0588 54.7149C24.0729 54.6807 24.0936 54.6496 24.1198 54.6235C24.6727 54.0979 26.3379 52.7953 29.0535 53.0529C29.235 53.0481 29.4155 53.0821 29.5831 53.1527C29.7508 53.2232 29.9018 53.3287 30.0263 53.4622C30.1509 53.5957 30.2462 53.7543 30.306 53.9275C30.3657 54.1008 30.3887 54.2849 30.3733 54.4677C30.3445 54.8583 30.2888 55.2463 30.2068 55.6291C30.1204 56.1995 30.1246 56.7802 30.2191 57.3493C30.3569 58.1595 30.657 59.0778 29.8429 59.6616C29.6043 59.8246 29.3297 59.9259 29.0432 59.9566Z" fill="white"/>
<path d="M14.0179 59.9566C14.9062 60.0591 15.8058 59.9742 16.66 59.7075C17.5141 59.4407 18.3042 58.9978 18.9804 58.4068C19.0091 58.3805 19.032 58.3484 19.0477 58.3126C19.0634 58.2768 19.0715 58.2381 19.0715 58.199C19.0715 58.1599 19.0634 58.1212 19.0477 58.0854C19.032 58.0496 19.0091 58.0175 18.9804 57.9913C17.6668 56.6803 18.522 55.4732 18.9414 55.0224C18.9675 54.9963 18.9882 54.9653 19.0023 54.931C19.0165 54.8968 19.0238 54.8601 19.0238 54.823C19.0238 54.7859 19.0165 54.7491 19.0023 54.7149C18.9882 54.6807 18.9675 54.6496 18.9414 54.6235C18.3904 54.0979 16.7253 52.7953 14.0077 53.0529C13.8263 53.0484 13.6461 53.0827 13.4787 53.1533C13.3113 53.224 13.1606 53.3295 13.0362 53.463C12.9119 53.5965 12.8168 53.7549 12.7571 53.928C12.6975 54.1012 12.6746 54.285 12.6899 54.4677C12.7188 54.8583 12.7744 55.2463 12.8565 55.6291C12.9432 56.1995 12.9383 56.7804 12.8421 57.3493C12.7064 58.1595 12.4042 59.0778 13.2183 59.6616C13.4571 59.8243 13.7316 59.9256 14.0179 59.9566Z" fill="white"/>
<path d="M23.534 56.423C23.5371 56.9495 23.3371 57.4566 22.9763 57.8365C22.6155 58.2164 22.1224 58.4391 21.6017 58.4575C21.0809 58.4759 20.5737 58.2885 20.1875 57.935C19.8014 57.5814 19.5668 57.0897 19.5335 56.5643C19.5321 56.537 19.5383 56.5099 19.5513 56.486C19.5644 56.4621 19.5839 56.4424 19.6075 56.4292C19.6312 56.4166 19.6581 56.4113 19.6847 56.4139C19.7114 56.4165 19.7367 56.4268 19.7576 56.4438C19.9547 56.5976 20.1972 56.6803 20.4463 56.6785C20.595 56.6788 20.7424 56.6495 20.8799 56.5922C21.0174 56.5349 21.1424 56.4508 21.2478 56.3447C21.3532 56.2386 21.4369 56.1126 21.494 55.9738C21.5512 55.835 21.5808 55.6862 21.581 55.5359C21.5817 55.3711 21.5467 55.2082 21.4785 55.0585C21.4104 54.9089 21.3106 54.7761 21.1863 54.6695C21.1664 54.6513 21.1517 54.628 21.1438 54.602C21.1358 54.5761 21.1349 54.5484 21.1411 54.522C21.1487 54.497 21.1629 54.4746 21.182 54.457C21.2012 54.4395 21.2247 54.4275 21.2501 54.4223C21.3425 54.4072 21.436 54.4002 21.5296 54.4015C22.0605 54.4015 22.5697 54.6144 22.9455 54.9933C23.3212 55.3723 23.5329 55.8865 23.534 56.423Z" fill="white"/>
</g>
<defs>
<clipPath id="clip0">
<rect width="38" height="60" fill="white"/>
</clipPath>
</defs>
</svg>
