<svg width="1920" height="1200" viewBox="0 0 1920 1200" fill="none" xmlns="http://www.w3.org/2000/svg">
<path fill-rule="evenodd" clip-rule="evenodd" d="M1544.79 35.0094L1730.01 752.189L1700.16 671.079L1326.04 1225.01L1363.04 1156.32L765.1 1234.09L833.618 1218.12L423.735 859.95L475.461 896.771L472.63 405.348L478.677 462.382L809.17 166.781L774.236 204.954L1171.51 252.011L1124.87 251.174L1330.42 548.127L1303.08 516.069L1225.23 832.656L1230.57 794.998L970.01 931.404L998.704 912.543L750.754 817.786L780.67 825.897L696.583 601.492L709 626.533L810.457 435.539L800.871 458.906L990.597 413.459L969.109 420.926L1113.22 522.185L1095.27 512.078L1112.96 670.114L1109.04 651.961L1109.04 651.963L1077.39 504.231L1095.27 512.085L949.422 430.073L969.045 420.932L794.051 481.958L800.871 458.977L723.089 649.135L708.999 626.604L809.749 830.731L780.734 825.903L1024.05 891.95L998.703 912.549L1232.05 758.827L1230.57 794.94L1274.19 488.267L1303.08 516.011L1080.6 254.85L1124.8 251.181L744.834 244.422L774.236 205.025L489.807 515.754L478.741 462.453L527.958 926.711L475.525 896.778L896.924 1196.43L833.682 1218.13L1391.54 1087.77L1363.1 1156.2L1664.19 597.121L1700.16 670.957L1457.03 10.6187L1544.66 34.9517L818.306 -247.517L823.71 -250.993L803.122 -250.993L135.51 93.7887L151.851 -16.7397L-82.2023 911.519L-161.85 816.827L296.414 1487.08H402.375L-82.0736 911.648L2.2706 993.531L135.51 93.9175L130.492 199.94L818.241 -247.453L743.548 -187.457L1456.97 10.6187L1371.79 -4.05827L1664.13 597.057L1623.21 530.688L1391.6 1087.71L1412 1020.31L897.053 1196.43L954.762 1169.98L528.023 926.711L580.392 950.015L489.872 515.818L505.441 565.192L744.77 244.486L720.708 284.526L1080.54 254.85L1039.11 262.51L1274.12 488.267L1244.21 464.771L1000.63 273.647L1039.04 262.51L701.729 324.695L720.708 284.526L524.87 610.447L505.44 565.257L632.182 967.073L580.456 950.015L1006.94 1139.46L954.826 1169.98L1424.93 954.585L1412 1020.25L1578.18 471.723L1623.15 530.56L1289.82 -9.91629L1371.66 -4.1226L678.632 -123.663L743.483 -187.393L135.831 300.748L130.491 200.069L89.8311 1063.12L2.33441 993.659L510.137 1487.08H623.883L89.8954 1063.18L179.194 1120.54L135.831 300.877L150.371 395.57L678.504 -123.535L623.239 -57.1017L1289.69 -9.91629L1211.78 -7.59879L1578.11 471.658L1529.99 420.224L1424.93 954.521L1430.91 891.242L1007 1139.4L1053.32 1105.67L632.246 967.073L682.75 978.274L524.87 610.511L547.452 651.388L701.729 324.759L687.639 364.477L1000.57 273.647L965.248 287.874L1213.65 445.394L1182.96 430.009L1224.91 692.2L1216.99 662.267L1064.78 847.275L1080.28 824.036L864.241 831.632L889.263 828.221H889.268L1092.76 800.54L1080.34 824.036L1206.63 634.651L1216.99 662.203L1152.46 418.293L1182.96 429.945L933.205 304.61L965.244 287.873L677.984 403.423L687.571 364.477L572.731 687.887L547.512 651.388L731.641 984.068L682.81 978.274L1093.98 1069.3L1053.38 1105.6L1430.58 830.796L1430.91 891.177L1479.54 376.193L1529.92 420.16L1138.24 1.92821L1211.65 -7.59891L577.235 11.0049L623.17 -57.0374L173.141 483.76L150.431 395.698L269.066 1166.31L179.253 1120.6L749.848 1487.08H899.107L269.195 1166.37L358.429 1201.07L173.206 483.889L203.058 564.999L577.17 11.0693L540.177 79.7554L1138.11 1.92821L1069.6 17.9571L1479.48 376.129L1427.75 339.307L1430.58 830.731L1424.54 773.697L1094.04 1069.3L1128.98 1031.12L731.705 984.068L778.348 984.905L572.795 687.952L600.138 720.01L677.984 403.423L672.645 441.081L933.205 304.675L904.511 323.536L904.515 323.538L671.171 477.259L672.651 441.146L629.031 747.819L600.144 720.074L822.618 981.235L778.419 984.905L1158.39 991.664L1128.98 1031.06L1413.41 720.331L1424.54 773.632L1375.26 309.374L1427.7 339.307L1006.3 39.651L1069.54 17.9572L511.683 148.313L540.119 79.8842L239.027 638.964L203.128 565.128L446.189 1225.47L358.563 1201.13L1084.91 1483.6L1079.51 1487.08H1100.1L1767.71 1142.3L1751.37 1252.83L1985.42 324.566L2065.07 419.259L1606.81 -250.993L1500.85 -250.993L1985.29 324.437L1900.95 242.555L1767.71 1142.17L1772.73 1036.15L1084.98 1483.54L1159.67 1423.54L446.253 1225.47L531.434 1240.14L239.092 639.028L280.009 705.461L511.618 148.377L491.224 215.776L1006.17 39.651L948.458 66.1083L1375.2 309.374L1322.83 286.071L1413.35 720.267L1397.78 670.893L1158.45 991.599L1182.51 951.559L822.682 981.235L864.114 973.575L629.095 747.819L659.012 771.315L671.171 477.323L673.165 511.57L879.169 344.135L857.166 366.022L857.17 366.023L678.32 543.817L673.173 511.63L689.515 790.688L659.02 771.311L902.595 962.435L864.187 973.571L1201.5 911.387L1182.52 951.556L1378.36 625.635L1397.79 670.825L1271.05 269.008L1322.77 286.067L896.29 96.6175L948.402 66.1046L478.3 281.497L491.232 215.836L325.052 764.359L280.082 705.522L613.405 1246L531.506 1240.2L1224.66 1359.68L1159.75 1423.47L1767.4 935.334L1772.74 1036.01L1813.4 172.964L1900.89 242.422L1393.09 -250.997L1279.35 -250.997L1813.33 172.9L1724.03 115.543L1767.4 935.205L1752.86 840.512L1224.72 1359.62L1279.99 1293.18L613.534 1246L691.445 1243.68L325.117 764.423L373.24 815.857L478.3 281.561L472.317 344.84L896.226 96.6819L849.904 130.413L1270.98 269.008L1220.48 257.807L1378.36 625.571L1355.78 584.694L1201.5 911.323L1215.59 871.604L902.659 962.435L937.98 948.208L937.973 948.204L1225.23 832.656L1215.64 871.601L1330.48 548.191L1355.7 584.691L1171.57 252.011L1220.4 257.804L809.235 166.781L849.831 130.475L472.63 405.283L472.308 344.901L423.67 859.886L373.295 815.854L764.972 1234.15L691.565 1243.68L1325.98 1225.07L1280.04 1293.12L1730.07 752.318L1752.78 840.38L1634.15 69.7709L1723.96 115.476L1153.37 -251L1004.11 -251L1634.02 69.7066L1544.79 35.0094ZM879.169 344.135L904.515 323.538L1152.46 418.293L1122.54 410.182L1206.63 634.587L1194.21 609.545L1092.76 800.54L1102.34 777.173L912.617 822.62L934.105 815.153L789.993 713.894L807.943 724.001L790.25 565.965L794.175 584.118L890.357 477.709L880.449 491.228L880.455 491.228L799.585 600.919L794.181 584.118L825.834 731.79L807.949 724.001L953.798 806.012L934.176 815.153L1109.17 754.127L1102.35 777.109L1180.13 586.951L1194.22 609.481L1093.47 405.354L1122.49 410.182L879.169 344.135ZM1093.47 405.354L1065.55 403.552L1180.13 586.951L1164.69 566.995L1109.17 754.127L1113.48 731.726L953.798 806.012L971.491 795.519L825.899 731.854L843.527 737.519L799.585 600.919L806.276 616.305L872.349 504.939L865.915 518.651L865.923 518.649L814.069 630.141L806.284 616.301L860.777 741.249L843.535 737.515L987.196 783.928L971.499 795.516L1115.42 710.157L1113.49 731.722L1148.23 549.546L1164.7 566.927L1038.99 404.449L1065.56 403.548L838.452 388.742L857.17 366.023L1093.47 405.354ZM877.438 743.114L1012.79 758.369L1001.02 771.437L1112.96 670.114L1115.15 689.555L1113.22 522.185L1130.91 534.609L990.597 413.459L1013.95 407.858L810.457 435.539L822.874 412.042L696.583 601.428L686.225 573.876L750.754 817.786L720.258 806.134L970.01 931.468L937.973 948.204L689.579 790.688L720.267 806.073L678.32 543.881L686.234 573.815L838.452 388.807L822.947 412.045L1038.99 404.449L1013.96 407.861L1148.16 549.546L1130.92 534.612L1115.42 710.092L1115.16 689.557L987.261 783.864L1000.96 771.44L860.777 741.249L877.44 743.116L877.438 743.114ZM955.608 505.579L858.01 545.491L861.227 532.23L822.754 642.565L814.069 630.206L877.438 743.114L893.322 743.306L1022.77 744.851L1012.86 758.369L1109.04 651.963L1103.64 635.166L1059.69 498.566L1077.32 504.231L931.73 440.566L949.422 430.073L789.741 504.36L794.051 481.958L738.529 669.091L723.089 649.135L837.671 832.534L809.749 830.731L1046.05 870.063L1024.05 891.95L1230.05 724.516L1232.05 758.762L1244.21 464.771L1213.71 445.394L1230.05 724.451L1224.91 692.265L1046.05 870.063L1064.78 847.339L837.671 832.534L864.241 831.632L738.529 669.155L754.999 686.536L789.74 504.36L787.81 525.925L931.729 440.566L916.031 452.153L1059.69 498.566L1042.45 494.833L902.264 464.642L915.967 452.218L788.068 546.524L787.81 525.989L772.305 701.47L755.063 686.536L889.268 828.221L912.617 822.62L772.301 701.47L789.993 713.894L788.063 546.524L790.25 565.965L902.195 464.642L890.421 477.709L1025.78 492.966L1009.89 492.773L880.455 491.228L872.349 504.939L994.78 494.125L980.691 496.764L865.923 518.649L861.227 532.165L967.638 500.687L955.608 505.579ZM1030.04 553.537L944.735 511.373L955.608 505.579L1040.53 558.751L1030.04 553.537ZM995.882 687.948L1038.47 623.189L1042.07 632.523L1019.62 549.61L1030.04 553.537L1044.84 642.758L1042.07 632.587L990.606 695.866L995.882 687.948ZM930.774 689.751L1000.06 679.901L995.882 687.948L922.282 690.974L930.774 689.751ZM890.693 646.814L884.838 641.728L930.774 689.751L938.752 687.755L938.747 687.751L1003.27 671.916L1000.05 679.899L1034.22 614.624L1038.46 623.186L1009.45 546.904L1019.61 549.607L935.011 517.807L944.726 511.37L856.264 558.298L858.001 545.488L832.138 653.441L822.745 642.562L893.322 743.306L908.376 741.954L832.138 653.441L841.982 662.84L856.264 558.362L855.814 570.657L935.011 517.872L926.39 524.888L1009.38 546.904L999.476 545.359L1034.22 614.624L1029.39 607.028L1003.27 671.916L1005.52 664.069L1005.52 664.063L1024.05 600.211L1029.39 606.971L990.018 544.786L999.475 545.301L918.991 532.362L926.39 524.895L856.586 582.316L855.814 570.664L852.275 670.829L842.046 662.846L922.53 739.322L908.44 741.961L1030.87 731.211L1022.77 744.858L1103.64 635.166L1096.94 619.781L1042.45 494.833L1025.79 492.966L1089.16 605.876L1080.47 593.517L1042 703.852L1045.22 690.591L1045.21 690.591L1071.08 582.638L1080.47 593.517L1009.89 492.773L994.838 494.125L1071.08 582.638L1061.23 573.239L1046.95 677.716L1047.4 665.421L968.203 718.207L976.824 711.19L893.831 689.175L903.739 690.784L868.997 621.454L873.823 629.051L899.943 564.162L897.691 572.016L957.138 550.902L950.511 554.056L950.514 554.058L896.282 579.612L897.697 572.016L879.169 635.874L873.829 629.115L913.202 691.299L903.745 690.784L984.229 703.723L976.83 711.191L1046.63 653.77L1047.41 665.421L1050.95 565.257L1061.17 573.239L980.691 496.764L967.63 500.626L1050.95 565.257L1040.52 558.755L1046.63 653.705L1044.83 642.762L984.293 703.659L990.598 695.87L913.202 691.299L922.274 690.977L879.169 635.874L884.83 641.732L896.282 579.676L895.639 587.015L895.647 587.011L890.693 646.814ZM895.775 594.028L896.74 650.998L890.693 646.814L938.747 687.751L946.013 685.177L896.796 650.995L902.908 654.407L952.704 682.023L946.077 685.177L1005.52 664.063L1006.94 656.473L952.703 682.03L958.687 678.425L909.019 657.053L915.003 658.92L899.819 612.507L902.135 617.721L920.921 660.143L915.067 658.92L964.091 674.434L958.751 678.425L1007.58 649.071L1006.94 656.409L1018.39 594.354L1024.05 600.211L980.947 545.108L990.018 544.786L912.622 540.151L918.927 532.427L858.387 593.324L856.586 582.38L862.698 677.33L852.275 670.829L935.59 735.395L922.53 739.322L1037.3 717.435L1030.87 731.146L1096.94 619.781L1089.16 605.941L1037.3 717.435L1042 703.852L935.59 735.395L947.62 730.502L1045.21 690.591L1046.95 677.781L958.489 724.709L968.203 718.271L883.606 686.471L893.767 689.175L864.751 612.893L868.997 621.454L903.16 556.18L899.943 564.162L964.472 548.262L957.202 550.902L1006.42 585.084L1000.31 581.672L950.514 554.058L944.534 557.661L994.201 579.033L994.195 579.033L988.218 577.166L1003.4 623.579L1001.09 618.365L982.299 575.943L988.153 577.166L939.133 561.653L939.138 561.648L944.469 557.661L895.647 587.011L895.775 594.028ZM934.505 565.897L896.547 600.594L895.775 594.028L939.13 561.652L939.133 561.653L934.505 565.897ZM976.645 575.295L982.307 575.875L934.505 565.897L930.517 570.339L976.645 575.295ZM995.431 609.413L998.455 613.597L976.645 575.295L971.241 575.231L995.431 609.413ZM983.658 642.565L982.564 647.071L995.431 609.413L992.215 605.744L983.658 642.565ZM954.192 654.345L950.461 656.341L983.658 642.565L984.173 638.188L954.192 654.345ZM928.587 641.471L925.048 640.183L954.192 654.345L957.473 652.157L957.464 652.154L984.357 634.001L984.164 638.185L988.86 602.522L992.206 605.741L966.085 575.743L971.168 575.228L927.098 574.97L930.508 570.4L897.954 606.771L896.538 600.591L902.908 654.407L909.02 657.046L897.954 606.771L899.819 612.5L927.098 574.97L924.396 579.67L966.085 575.743L961.26 576.709L988.86 602.522L985.322 599.883L985.322 599.89L956.821 578.003L961.26 576.715L922.273 584.376L924.396 579.676L902.135 617.721L904.773 622.42L922.208 584.376L920.664 589.011L956.821 578.003L952.768 579.741L981.783 597.701L978.18 595.898L983.392 626.282L982.426 622.806L974.641 594.611L978.18 595.898L949.036 581.736L952.767 579.741L919.57 593.517L920.664 589.011L907.797 626.669L904.773 622.484L926.583 660.786L920.921 660.207L968.723 670.185L964.091 674.434L1007.45 642.054L1007.58 649.071L1012.54 589.268L1018.39 594.289L972.454 546.331L980.946 545.108L907.411 548.134L912.622 540.216L861.153 603.495L858.387 593.324L873.184 682.544L862.698 677.33L947.62 730.502L958.493 724.773L873.184 682.544L883.602 686.471L883.606 686.471L861.153 603.559L864.756 612.893L907.346 548.134L903.164 556.18L972.454 546.331L964.476 548.262L1012.54 589.268L1006.49 585.084L1007.45 642.054L1006.68 635.488L968.723 670.185L972.711 665.743L926.583 660.786L931.982 660.851L931.987 660.851L976.117 661.108L972.707 665.679L1005.26 629.308L1006.68 635.488L1000.31 581.672L994.195 579.033L1005.26 629.308L1003.4 623.579L976.117 661.108L978.819 656.409L937.129 660.336L941.954 659.37L914.354 633.557L917.893 636.196L918.858 602.078L919.179 606.069L942.855 586.371L940.346 588.946L940.352 588.946L919.829 609.803L919.186 606.069L921.437 638.385L917.899 636.196L946.4 658.083L941.96 659.37L980.948 651.71L978.825 656.409L1001.09 618.365L998.447 613.665L981.012 651.71L982.556 647.075L946.4 658.083L950.453 656.345L921.437 638.385L925.04 640.187L919.829 609.803L920.794 613.279L938.165 591.585L936.427 594.289L964.536 593.002L979.719 616.755L967.753 593.195L971.163 593.71L942.855 586.371L945.75 583.925L918.858 602.078L919.051 597.894L914.354 633.492L911.009 630.338L937.129 660.336L931.987 660.851L907.797 626.669L911.013 630.338L919.57 593.517L919.055 597.894L949.036 581.736L945.755 583.925L974.641 594.611L971.167 593.71L981.204 619.652L979.724 616.755L966.793 641.732L938.678 643.084L965.056 644.5L962.868 647.139L983.392 626.282L984.034 630.01L960.359 649.708L962.869 647.133L935.462 642.884L938.678 643.077L923.495 619.323L935.462 642.884L932.061 642.372L922.024 616.43L923.504 619.326L936.436 594.35L922.024 616.43L920.802 613.275L928.587 641.471ZM928.587 641.471L957.464 652.154L960.359 649.708L932.061 642.372L932.052 642.369L928.587 641.471ZM965.056 644.5L982.426 622.806L981.204 619.652L966.793 641.732L965.056 644.5ZM964.542 593.002L967.753 593.195L940.352 588.946L938.165 591.585L964.536 593.002L964.542 593.002ZM984.034 630.01L984.035 630.009L984.357 634.001L985.322 599.89L981.783 597.701L984.034 630.01ZM-270.769 -144.653L-270.769 -250.997L-123.054 -250.997L-270.769 -144.653ZM2173.99 1487.08H2026.27L2173.99 1380.73V1487.08ZM2173.99 1068.53L1786.49 1487.08H1880.62L2173.99 1227.78V1068.53ZM-270.769 8.29895L22.6023 -250.996L116.726 -250.996L-270.769 167.558L-270.769 8.29895ZM2174 275.646L2067.33 -250.99L1941.88 -250.99L2174 499.793V275.646ZM-164.036 1487.08L-270.769 960.443L-270.769 736.296L-38.6453 1487.08H-164.036ZM2173.98 697.865L1693.46 1487.08H1727.37L2173.98 895.748V697.865ZM-270.769 340.334L175.85 -250.997L209.755 -250.997L-270.769 538.217L-270.769 340.334ZM242.053 -250.997L224.489 -250.997L222.881 -247.585L242.053 -250.997ZM1678.73 1487.08H1661.17L1680.34 1483.67L1678.73 1487.08ZM1680.4 1483.54L2138.8 527.084L2173.99 591.521V575.17L1824.9 -250.993L1713.99 -250.993L2138.73 526.955L2065.2 419.388L1722.54 1366.96L1751.3 1252.95L1159.35 1487.08H1299.92L1722.48 1367.09L1680.4 1483.54ZM180.675 -130.873L-161.977 816.698L-235.513 709.131L189.232 1487.08H78.3815L-270.769 660.915L-270.769 644.564L-235.577 709.002L222.815 -247.453L180.74 -131.002L603.297 -250.993L743.871 -250.993L151.917 -16.8685L180.675 -130.873Z" fill="#101521"/>
</svg>
